<?xml version="1.0" encoding="UTF-8" ?>
<svg version="1.1" width="80" height="80" xmlns="http://www.w3.org/2000/svg" shape-rendering="crispEdges">
<rect x="5" y="15" width="10" height="35" fill="#FFFFFF" />
<rect x="65" y="15" width="10" height="35" fill="#FFFFFF" />
<rect x="0" y="20" width="5" height="20" fill="#FFFFFF" />
<rect x="15" y="20" width="5" height="25" fill="#FFFFFF" />
<rect x="60" y="20" width="5" height="25" fill="#FFFFFF" />
<rect x="75" y="20" width="5" height="20" fill="#FFFFFF" />
<rect x="20" y="30" width="5" height="15" fill="#FFFFFF" />
<rect x="55" y="30" width="5" height="15" fill="#FFFFFF" />
<rect x="25" y="45" width="30" height="10" fill="#FFFFFF" />
<rect x="20" y="50" width="5" height="25" fill="#FFFFFF" />
<rect x="55" y="50" width="5" height="25" fill="#FFFFFF" />
<rect x="30" y="55" width="20" height="20" fill="#FFFFFF" />
<rect x="10" y="60" width="10" height="5" fill="#FFFFFF" />
<rect x="60" y="60" width="10" height="5" fill="#FFFFFF" />
<rect x="15" y="65" width="5" height="5" fill="#FFFFFF" />
<rect x="25" y="65" width="5" height="10" fill="#FFFFFF" />
<rect x="50" y="65" width="5" height="10" fill="#FFFFFF" />
<rect x="60" y="65" width="5" height="5" fill="#FFFFFF" />
</svg>